<?xml version="1.0" encoding="UTF-8" standalone="no"?>
<!-- Created with Inkscape (http://www.inkscape.org/) -->

<svg
   width="500"
   height="500"
   viewBox="0 0 132.29167 132.29167"
   version="1.1"
   id="svg5"
   xml:space="preserve"
   inkscape:version="1.2.2 (b0a8486541, 2022-12-01)"
   sodipodi:docname="Temp_Logo.svg"
   xmlns:inkscape="http://www.inkscape.org/namespaces/inkscape"
   xmlns:sodipodi="http://sodipodi.sourceforge.net/DTD/sodipodi-0.dtd"
   xmlns="http://www.w3.org/2000/svg"
   xmlns:svg="http://www.w3.org/2000/svg"><sodipodi:namedview
     id="namedview7"
     pagecolor="#ffffff"
     bordercolor="#000000"
     borderopacity="0.25"
     inkscape:showpageshadow="2"
     inkscape:pageopacity="0.0"
     inkscape:pagecheckerboard="0"
     inkscape:deskcolor="#d1d1d1"
     inkscape:document-units="mm"
     showgrid="false"
     inkscape:zoom="0.914906"
     inkscape:cx="261.22902"
     inkscape:cy="300.03082"
     inkscape:window-width="1536"
     inkscape:window-height="1664"
     inkscape:window-x="5808"
     inkscape:window-y="27"
     inkscape:window-maximized="0"
     inkscape:current-layer="layer1" /><defs
     id="defs2" /><g
     inkscape:label="Layer 1"
     inkscape:groupmode="layer"
     id="layer1"><g
       id="g24"
       transform="matrix(0.10709674,0,0,0.10709674,-0.629049,47.965451)"><text
         font-family="'DM Sans'"
         font-size="260px"
         text-anchor="left"
         x="310"
         charspacing="20px"
         id="text11"><tspan
           dy="239.2"
           x="310"
           id="tspan9">PyBOP</tspan></text><path
         transform="translate(50,50)"
         d="m 100,50 v 50 L 138.05,61.95 A 7,7 -45 0 0 133.101,50 Z m 0,0 H 66.899 A 7,7 45 0 1 61.95,38.05 l 26.1,-26.1 A 7,7 45 0 1 100,16.899 Z m -43,50 a 7,7 -90 0 0 -7,7 v 43 l 50,-50 z m -7,50 h 50 v -50 z m 0,0 h 50 v 50 z m 100,0 v 43 a 7,7 90 0 1 -7,7 h -43 z m -50,0 h 50 l -50,50 z"
         id="path13" /></g></g></svg>
